<svg xmlns="http://www.w3.org/2000/svg" enable-background="new 0 0 512 512" viewBox="0 0 512 512"><path fill="#28C6BE" d="M456 200L456 200l0-152c0-13.255-10.745-24-24-24s-24 10.745-24 24v152h0c-9.715 7.298-16 18.915-16 32 0 22.091 17.909 40 40 40s40-17.909 40-40C472 218.914 465.715 207.297 456 200zM432 488H80V377.785c0-29.516 19.445-55.504 47.762-63.832L216 288h80l88.238 25.952C412.555 322.281 432 348.269 432 377.785V488z"/><path fill="#C78B8B" d="M256,352L256,352c-22.091,0-40-17.909-40-40v-80h80v80C296,334.091,278.091,352,256,352z"/><path fill="#155A6D" d="M360,94.647C360,55.63,328.37,24,289.353,24H280h-57.353C183.63,24,152,55.63,152,94.647V132
	c0,6.627,5.373,12,12,12h184c6.627,0,12-5.373,12-12V94.647z"/><path fill="#EDA6A6" d="M256,272L256,272c-48.601,0-88-39.399-88-88v-65.941c0-7.764,6.294-14.059,14.059-14.059h147.882
	c7.764,0,14.059,6.294,14.059,14.059V184C344,232.601,304.601,272,256,272z"/><path fill="#DC9A9A" d="M353.059 192H344v-64h9.059c12.67 0 22.941 10.271 22.941 22.941v18.118C376 181.729 365.729 192 353.059 192zM158.941 192H168v-64h-9.059C146.271 128 136 138.271 136 150.941v18.118C136 181.729 146.271 192 158.941 192z"/><polyline fill="#24B0A9" points="160 400 160 488 80 488 80 400"/><polyline fill="#24B0A9" points="352 400 352 488 432 488 432 400"/><path fill="#155A6D" d="M288.002,240.002c-3.179,0-6.185-1.907-7.434-5.04C278.45,229.648,269.12,224,256,224
		s-22.45,5.648-24.569,10.962c-1.636,4.104-6.291,6.105-10.394,4.469c-4.104-1.636-6.105-6.29-4.469-10.394
		C221.585,216.455,237.431,208,256,208s34.415,8.455,39.431,21.038c1.636,4.104-0.365,8.758-4.469,10.394
		C289.991,239.818,288.988,240.002,288.002,240.002z"/><path fill="#993030" d="M223.816 136c-2.047 0-4.095-.781-5.657-2.343-3.125-3.124-3.125-8.189 0-11.313l2.029-2.029c4.584-4.584 4.584-12.043 0-16.628l-4.059-4.058c-10.822-10.823-10.822-28.433 0-39.255l2.031-2.03c3.125-3.123 8.19-3.123 11.314.001 3.124 3.125 3.123 8.19-.001 11.314l-2.03 2.029c-4.583 4.583-4.583 12.042.001 16.627l4.059 4.058c10.823 10.823 10.823 28.433 0 39.255l-2.029 2.029C227.911 135.219 225.864 136 223.816 136zM255.816 136c-2.047 0-4.095-.781-5.657-2.343-3.125-3.124-3.125-8.189 0-11.313l2.029-2.029c4.584-4.584 4.584-12.043 0-16.628l-4.059-4.058c-10.822-10.823-10.822-28.433 0-39.255l2.031-2.03c3.125-3.123 8.19-3.123 11.314.001 3.124 3.125 3.123 8.19-.001 11.314l-2.03 2.029c-4.583 4.583-4.583 12.042.001 16.627l4.059 4.058c10.823 10.823 10.823 28.433 0 39.255l-2.029 2.029C259.911 135.219 257.864 136 255.816 136zM287.449 136c-2.047 0-4.095-.781-5.657-2.343-3.125-3.124-3.125-8.189 0-11.313l2.029-2.029c4.584-4.584 4.584-12.043 0-16.628l-4.059-4.059c-10.823-10.823-10.823-28.432 0-39.255l2.029-2.029c3.124-3.124 8.189-3.124 11.313 0 3.125 3.124 3.125 8.189 0 11.313l-2.029 2.029c-4.584 4.584-4.584 12.043 0 16.628l4.059 4.059c10.823 10.823 10.823 28.432 0 39.255l-2.029 2.029C291.543 135.219 289.496 136 287.449 136z"/><path fill="#155A6D" d="M232 168h-24c-4.418 0-8-3.582-8-8s3.582-8 8-8h24c4.418 0 8 3.582 8 8S236.418 168 232 168zM304 168h-24c-4.418 0-8-3.582-8-8s3.582-8 8-8h24c4.418 0 8 3.582 8 8S308.418 168 304 168z"/><circle cx="432" cy="232" r="24" fill="#993030"/><path fill="#993030" d="M432,216c-4.418,0-8-3.582-8-8V80c0-4.418,3.582-8,8-8s8,3.582,8,8v128C440,212.418,436.418,216,432,216z"/><path d="M425.142,341.129c-9.72-12.989-23.083-22.275-38.645-26.854L304,290.014v-22.901
		c24.265-14.068,41.831-38.455,46.659-67.113h2.399C370.12,200,384,186.12,384,169.059v-18.117c0-11.645-6.469-21.804-16-27.083
		V94.65C368,51.282,332.718,16,289.35,16h-66.7C179.282,16,144,51.282,144,94.65v29.208c-9.531,5.279-16,15.438-16,27.083v18.117
		C128,186.12,141.88,200,158.941,200h2.399c4.829,28.658,22.394,53.045,46.659,67.113v22.901l-82.499,24.261
		c-15.561,4.579-28.923,13.865-38.643,26.854C77.138,354.12,72,369.56,72,385.78V408v80c0,4.418,3.582,8,8,8h352
		c4.418,0,8-3.582,8-8v-80v-22.22C440,369.56,434.862,354.12,425.142,341.129z M368,150.941v18.117
		c0,8.239-6.703,14.941-14.941,14.941H352v-48h1.059C361.297,136,368,142.703,368,150.941z M160,184h-1.059
		c-8.239,0-14.941-6.703-14.941-14.941v-18.117c0-8.239,6.703-14.941,14.941-14.941H160V184z M160,118.059V94.65
		C160,60.104,188.104,32,222.65,32h66.7C323.896,32,352,60.104,352,94.65v23.409C352,105.896,342.104,96,329.941,96h-31.759
		c-0.899-1.272-1.91-2.489-3.048-3.627l-4.059-4.059c-4.584-4.584-4.584-12.043,0-16.628l2.029-2.029
		c3.125-3.124,3.125-8.189,0-11.313c-3.124-3.124-8.189-3.124-11.313,0l-2.029,2.029c-9.685,9.685-10.696,24.8-3.048,35.627h-10.164
		c-0.899-1.273-1.91-2.49-3.048-3.628l-4.059-4.058c-4.584-4.584-4.584-12.043-0.001-16.627l2.03-2.029
		c3.125-3.124,3.125-8.189,0.001-11.314c-3.124-3.124-8.189-3.125-11.314-0.001l-2.031,2.03c-9.684,9.685-10.695,24.8-3.048,35.627
		h-10.531c-0.899-1.273-1.91-2.49-3.048-3.628l-4.059-4.058c-4.584-4.584-4.584-12.043-0.001-16.627l2.03-2.029
		c3.125-3.124,3.125-8.189,0.001-11.314c-3.124-3.124-8.189-3.125-11.314-0.001l-2.031,2.03c-9.684,9.685-10.695,24.8-3.048,35.627
		h-31.023C169.896,96,160,105.896,160,118.059z M176,184v-56v-9.941c0-3.341,2.718-6.059,6.059-6.059h41.568
		c0,3.011-1.146,6.022-3.438,8.314l-2.029,2.029c-3.125,3.124-3.125,8.189,0,11.313c1.562,1.562,3.609,2.343,5.657,2.343
		s4.095-0.781,5.657-2.343l2.029-2.029c5.411-5.411,8.117-12.519,8.117-19.627h16.007c0,3.011-1.146,6.022-3.438,8.314l-2.029,2.029
		c-3.125,3.124-3.125,8.189,0,11.313c1.562,1.562,3.609,2.343,5.657,2.343s4.095-0.781,5.657-2.343l2.029-2.029
		c5.411-5.411,8.117-12.519,8.117-19.627h15.64c0,3.011-1.146,6.022-3.438,8.314l-2.029,2.029c-3.125,3.124-3.125,8.189,0,11.313
		c1.562,1.562,3.609,2.343,5.657,2.343s4.095-0.781,5.657-2.343l2.029-2.029c5.411-5.411,8.117-12.519,8.117-19.627h26.69
		c3.341,0,6.059,2.718,6.059,6.059V128v56c0,44.112-35.888,80-80,80S176,228.112,176,184z M288,274.509v21.589
		c0,0.014,0,0.029,0,0.043V312c0,17.645-14.355,32-32,32s-32-14.355-32-32v-15.858c0-0.015,0-0.029,0-0.043v-21.589
		c10.014,3.551,20.784,5.491,32,5.491S277.986,278.06,288,274.509z M424,408v72h-64v-72c0-4.418-3.582-8-8-8s-8,3.582-8,8v72H168
		v-72c0-4.418-3.582-8-8-8s-8,3.582-8,8v72H88v-72v-22.22c0-25.784,17.278-48.875,42.017-56.155L208,306.691V312
		c0,26.467,21.533,48,48,48s48-21.533,48-48v-5.309l77.982,22.934C406.722,336.904,424,359.996,424,385.78V408z"/><path d="M280.569 234.962c1.249 3.133 4.255 5.04 7.434 5.04.986 0 1.989-.184 2.96-.571 4.104-1.636 6.105-6.29 4.469-10.394C290.415 216.455 274.569 208 256 208s-34.415 8.455-39.431 21.038c-1.636 4.104.365 8.758 4.469 10.394 4.103 1.636 8.757-.365 10.394-4.469C233.55 229.648 242.88 224 256 224S278.45 229.648 280.569 234.962zM240 160c0-4.418-3.582-8-8-8h-24c-4.418 0-8 3.582-8 8s3.582 8 8 8h24C236.418 168 240 164.418 240 160zM280 168h24c4.418 0 8-3.582 8-8s-3.582-8-8-8h-24c-4.418 0-8 3.582-8 8S275.582 168 280 168zM464 196.218V48c0-17.645-14.355-32-32-32s-32 14.355-32 32v148.218c-10.217 9.102-16 21.929-16 35.782 0 26.467 21.533 48 48 48s48-21.533 48-48C480 218.147 474.217 205.32 464 196.218zM432 264c-17.645 0-32-14.355-32-32 0-10.159 4.667-19.491 12.805-25.604 2.011-1.511 3.195-3.88 3.195-6.396V48c0-8.822 7.178-16 16-16s16 7.178 16 16v152c0 2.516 1.184 4.885 3.195 6.396C459.333 212.509 464 221.841 464 232 464 249.645 449.645 264 432 264z"/><path d="M439.88,209.335c0.073-0.435,0.12-0.879,0.12-1.335V80c0-4.418-3.582-8-8-8s-8,3.582-8,8v128c0,0.456,0.047,0.9,0.12,1.335
		C414.747,212.604,408,221.526,408,232c0,13.234,10.766,24,24,24s24-10.766,24-24C456,221.526,449.253,212.604,439.88,209.335z
		 M432,240c-4.411,0-8-3.589-8-8s3.589-8,8-8s8,3.589,8,8S436.411,240,432,240z"/></svg>